# 3ds Max Wavefront OBJ Exporter v0.97b - (c)2007 guruware
# File Created: 06.07.2015 14:38:08

#
# object Box002
#

v  60.2790 -25.0175 12.3237
v  -59.2210 -25.0175 12.3237
v  -59.2210 -14.2175 12.3237
v  60.2790 -14.2175 12.3237
v  60.2790 -25.0175 14.0157
v  60.2790 -14.2175 14.0157
v  -59.2210 -14.2175 14.0157
v  -59.2210 -25.0175 14.0157
v  39.4259 -25.0000 14.1386
v  39.4259 25.0000 14.1386
v  50.2259 25.0000 14.1386
v  50.2259 -25.0000 14.1386
v  39.4259 -25.0000 15.8306
v  50.2259 -25.0000 15.8306
v  50.2259 25.0000 15.8306
v  39.4259 25.0000 15.8306
v  -49.4106 -25.0000 -15.8306
v  -49.4106 25.0000 -15.8306
v  -38.6106 25.0000 -15.8306
v  -38.6106 -25.0000 -15.8306
v  -49.4106 -25.0000 -14.1386
v  -38.6106 -25.0000 -14.1386
v  -38.6106 25.0000 -14.1386
v  -49.4106 25.0000 -14.1386
v  39.4259 -25.0000 -15.8306
v  39.4259 25.0000 -15.8306
v  50.2259 25.0000 -15.8306
v  50.2259 -25.0000 -15.8306
v  39.4259 -25.0000 -14.1386
v  50.2259 -25.0000 -14.1386
v  50.2259 25.0000 -14.1386
v  39.4259 25.0000 -14.1386
v  -49.2733 -25.0000 14.1386
v  -49.2733 25.0000 14.1386
v  -38.4733 25.0000 14.1386
v  -38.4733 -25.0000 14.1386
v  -49.2733 -25.0000 15.8306
v  -38.4733 -25.0000 15.8306
v  -38.4733 25.0000 15.8306
v  -49.2733 25.0000 15.8306
v  -60.5290 -25.0000 12.1090
v  -60.5290 25.0000 12.1090
v  -60.5290 25.0000 0.2290
v  -60.5290 -25.0000 0.2290
v  -58.8370 -25.0000 12.1090
v  -58.8370 -25.0000 0.2290
v  -58.8370 25.0000 0.2290
v  -58.8370 25.0000 12.1090
v  -60.5290 -25.0000 -0.6371
v  -60.5290 25.0000 -0.6371
v  -60.5290 25.0000 -12.5171
v  -60.5290 -25.0000 -12.5171
v  -58.8370 -25.0000 -0.6371
v  -58.8370 -25.0000 -12.5171
v  -58.8370 25.0000 -12.5171
v  -58.8370 25.0000 -0.6371
v  59.8742 -25.0000 -0.6371
v  59.8742 25.0000 -0.6371
v  59.8742 25.0000 -12.5171
v  59.8742 -25.0000 -12.5171
v  61.5662 -25.0000 -0.6371
v  61.5662 -25.0000 -12.5171
v  61.5662 25.0000 -12.5171
v  61.5662 25.0000 -0.6371
v  59.8742 -25.0000 12.1090
v  59.8742 25.0000 12.1090
v  59.8742 25.0000 0.2290
v  59.8742 -25.0000 0.2290
v  61.5662 -25.0000 12.1090
v  61.5662 -25.0000 0.2290
v  61.5662 25.0000 0.2290
v  61.5662 25.0000 12.1090
v  60.2790 13.8072 12.3237
v  -59.2210 13.8072 12.3237
v  -59.2210 24.6072 12.3237
v  60.2790 24.6073 12.3237
v  60.2790 13.8072 14.0157
v  60.2790 24.6073 14.0157
v  -59.2210 24.6072 14.0157
v  -59.2210 13.8072 14.0157
v  60.2790 -24.4946 3.0904
v  -59.2210 -24.4946 3.0904
v  -59.2210 -24.4946 12.3568
v  60.2790 -24.4946 12.3568
v  60.2790 -26.1866 3.0904
v  60.2790 -26.1866 12.3568
v  -59.2210 -26.1866 12.3568
v  -59.2210 -26.1866 3.0904
v  60.2790 -24.4946 -13.8808
v  -59.2210 -24.4946 -13.8808
v  -59.2210 -24.4946 -4.6143
v  60.2790 -24.4946 -4.6143
v  60.2790 -26.1866 -13.8808
v  60.2790 -26.1866 -4.6143
v  -59.2210 -26.1866 -4.6143
v  -59.2210 -26.1866 -13.8808
v  60.2790 -24.4946 -3.9683
v  -59.2210 -24.4946 -3.9683
v  -59.2210 -24.4946 2.7001
v  60.2790 -24.4946 2.7001
v  60.2790 -26.1866 -3.9683
v  60.2790 -26.1866 2.7001
v  -59.2210 -26.1866 2.7001
v  -59.2210 -26.1866 -3.9683
v  60.2790 25.6364 3.0904
v  -59.2210 25.6364 3.0904
v  -59.2210 25.6364 12.3568
v  60.2790 25.6364 12.3568
v  60.2790 23.9444 3.0904
v  60.2790 23.9444 12.3568
v  -59.2210 23.9444 12.3568
v  -59.2210 23.9444 3.0904
v  60.2790 25.6364 -3.9683
v  -59.2210 25.6364 -3.9683
v  -59.2210 25.6364 2.7001
v  60.2790 25.6364 2.7001
v  60.2790 23.9444 -3.9683
v  60.2790 23.9444 2.7001
v  -59.2210 23.9444 2.7001
v  -59.2210 23.9444 -3.9683
v  60.2790 25.6364 -13.8808
v  -59.2210 25.6364 -13.8808
v  -59.2210 25.6364 -4.6143
v  60.2790 25.6364 -4.6143
v  60.2790 23.9444 -13.8808
v  60.2790 23.9444 -4.6143
v  -59.2210 23.9444 -4.6143
v  -59.2210 23.9444 -13.8808
v  60.2790 -13.6248 12.3237
v  -59.2210 -13.6248 12.3237
v  -59.2210 -0.5741 12.3237
v  60.2790 -0.5740 12.3237
v  60.2790 -13.6248 14.0157
v  60.2790 -0.5740 14.0157
v  -59.2210 -0.5741 14.0157
v  -59.2210 -13.6248 14.0157
v  60.2790 0.2050 12.3237
v  -59.2210 0.2050 12.3237
v  -59.2210 13.2557 12.3237
v  60.2790 13.2557 12.3237
v  60.2790 0.2050 14.0157
v  60.2790 13.2557 14.0157
v  -59.2210 13.2557 14.0157
v  -59.2210 0.2050 14.0157
v  60.2790 0.2050 -14.0125
v  -59.2210 0.2050 -14.0125
v  -59.2210 13.2557 -14.0125
v  60.2790 13.2557 -14.0125
v  60.2790 0.2050 -12.3205
v  60.2790 13.2557 -12.3205
v  -59.2210 13.2557 -12.3205
v  -59.2210 0.2050 -12.3205
v  60.2790 13.8072 -14.0125
v  -59.2210 13.8072 -14.0125
v  -59.2210 24.6072 -14.0125
v  60.2790 24.6073 -14.0125
v  60.2790 13.8072 -12.3205
v  60.2790 24.6073 -12.3205
v  -59.2210 24.6072 -12.3205
v  -59.2210 13.8072 -12.3205
v  60.2790 -13.6248 -14.0125
v  -59.2210 -13.6248 -14.0125
v  -59.2210 -0.5741 -14.0125
v  60.2790 -0.5740 -14.0125
v  60.2790 -13.6248 -12.3205
v  60.2790 -0.5740 -12.3205
v  -59.2210 -0.5741 -12.3205
v  -59.2210 -13.6248 -12.3205
v  60.2790 -25.0175 -14.0125
v  -59.2210 -25.0175 -14.0125
v  -59.2210 -14.2175 -14.0125
v  60.2790 -14.2175 -14.0125
v  60.2790 -25.0175 -12.3205
v  60.2790 -14.2175 -12.3205
v  -59.2210 -14.2175 -12.3205
v  -59.2210 -25.0175 -12.3205
# 176 vertices

vn 0.0000 0.0000 -1.0000
vn 0.0000 0.0000 1.0000
vn 1.0000 0.0000 0.0000
vn -0.0000 1.0000 0.0000
vn -1.0000 -0.0000 0.0000
vn 0.0000 -1.0000 0.0000
vn 1.0000 -0.0000 0.0000
vn 0.0000 -1.0000 -0.0000
# 8 vertex normals

vt 1.0000 0.0000 0.0000
vt 1.0000 1.0000 0.0000
vt 0.0000 1.0000 0.0000
vt 0.0000 0.0000 0.0000
# 4 texture coords

g Box002
s 2
f 1/1/1 2/2/1 3/3/1 4/4/1 
s 4
f 5/4/2 6/1/2 7/2/2 8/3/2 
s 8
f 1/4/3 4/1/3 6/2/3 5/3/3 
s 16
f 4/4/4 3/1/4 7/2/4 6/3/4 
s 32
f 3/4/5 2/1/5 8/2/5 7/3/5 
s 64
f 2/4/6 1/1/6 5/2/6 8/3/6 
s 2
f 9/1/1 10/2/1 11/3/1 12/4/1 
s 4
f 13/4/2 14/1/2 15/2/2 16/3/2 
s 8
f 9/4/6 12/1/6 14/2/6 13/3/6 
s 16
f 12/4/3 11/1/3 15/2/3 14/3/3 
s 32
f 11/4/4 10/1/4 16/2/4 15/3/4 
s 64
f 10/4/5 9/1/5 13/2/5 16/3/5 
s 2
f 17/1/1 18/2/1 19/3/1 20/4/1 
s 4
f 21/4/2 22/1/2 23/2/2 24/3/2 
s 8
f 17/4/6 20/1/6 22/2/6 21/3/6 
s 16
f 20/4/3 19/1/3 23/2/3 22/3/3 
s 32
f 19/4/4 18/1/4 24/2/4 23/3/4 
s 64
f 18/4/5 17/1/5 21/2/5 24/3/5 
s 2
f 25/1/1 26/2/1 27/3/1 28/4/1 
s 4
f 29/4/2 30/1/2 31/2/2 32/3/2 
s 8
f 25/4/6 28/1/6 30/2/6 29/3/6 
s 16
f 28/4/3 27/1/3 31/2/3 30/3/3 
s 32
f 27/4/4 26/1/4 32/2/4 31/3/4 
s 64
f 26/4/5 25/1/5 29/2/5 32/3/5 
s 2
f 33/1/1 34/2/1 35/3/1 36/4/1 
s 4
f 37/4/2 38/1/2 39/2/2 40/3/2 
s 8
f 33/4/6 36/1/6 38/2/6 37/3/6 
s 16
f 36/4/3 35/1/3 39/2/3 38/3/3 
s 32
f 35/4/4 34/1/4 40/2/4 39/3/4 
s 64
f 34/4/5 33/1/5 37/2/5 40/3/5 
s 2
f 41/1/5 42/2/5 43/3/5 44/4/5 
s 4
f 45/4/7 46/1/7 47/2/7 48/3/7 
s 8
f 41/4/6 44/1/6 46/2/6 45/3/6 
s 16
f 44/4/1 43/1/1 47/2/1 46/3/1 
s 32
f 43/4/4 42/1/4 48/2/4 47/3/4 
s 64
f 42/4/2 41/1/2 45/2/2 48/3/2 
s 2
f 49/1/5 50/2/5 51/3/5 52/4/5 
s 4
f 53/4/7 54/1/7 55/2/7 56/3/7 
s 8
f 49/4/6 52/1/6 54/2/6 53/3/6 
s 16
f 52/4/1 51/1/1 55/2/1 54/3/1 
s 32
f 51/4/4 50/1/4 56/2/4 55/3/4 
s 64
f 50/4/2 49/1/2 53/2/2 56/3/2 
s 2
f 57/1/5 58/2/5 59/3/5 60/4/5 
s 4
f 61/4/7 62/1/7 63/2/7 64/3/7 
s 8
f 57/4/6 60/1/6 62/2/6 61/3/6 
s 16
f 60/4/1 59/1/1 63/2/1 62/3/1 
s 32
f 59/4/4 58/1/4 64/2/4 63/3/4 
s 64
f 58/4/2 57/1/2 61/2/2 64/3/2 
s 2
f 65/1/5 66/2/5 67/3/5 68/4/5 
s 4
f 69/4/7 70/1/7 71/2/7 72/3/7 
s 8
f 65/4/6 68/1/6 70/2/6 69/3/6 
s 16
f 68/4/1 67/1/1 71/2/1 70/3/1 
s 32
f 67/4/4 66/1/4 72/2/4 71/3/4 
s 64
f 66/4/2 65/1/2 69/2/2 72/3/2 
s 2
f 73/1/1 74/2/1 75/3/1 76/4/1 
s 4
f 77/4/2 78/1/2 79/2/2 80/3/2 
s 8
f 73/4/3 76/1/3 78/2/3 77/3/3 
s 16
f 76/4/4 75/1/4 79/2/4 78/3/4 
s 32
f 75/4/5 74/1/5 80/2/5 79/3/5 
s 64
f 74/4/6 73/1/6 77/2/6 80/3/6 
s 2
f 81/1/4 82/2/4 83/3/4 84/4/4 
s 4
f 85/4/6 86/1/6 87/2/6 88/3/6 
s 8
f 81/4/3 84/1/3 86/2/3 85/3/3 
s 16
f 84/4/2 83/1/2 87/2/2 86/3/2 
s 32
f 83/4/5 82/1/5 88/2/5 87/3/5 
s 64
f 82/4/1 81/1/1 85/2/1 88/3/1 
s 2
f 89/1/4 90/2/4 91/3/4 92/4/4 
s 4
f 93/4/6 94/1/6 95/2/6 96/3/6 
s 8
f 89/4/3 92/1/3 94/2/3 93/3/3 
s 16
f 92/4/2 91/1/2 95/2/2 94/3/2 
s 32
f 91/4/5 90/1/5 96/2/5 95/3/5 
s 64
f 90/4/1 89/1/1 93/2/1 96/3/1 
s 2
f 97/1/4 98/2/4 99/3/4 100/4/4 
s 4
f 101/4/6 102/1/6 103/2/6 104/3/6 
s 8
f 97/4/3 100/1/3 102/2/3 101/3/3 
s 16
f 100/4/2 99/1/2 103/2/2 102/3/2 
s 32
f 99/4/5 98/1/5 104/2/5 103/3/5 
s 64
f 98/4/1 97/1/1 101/2/1 104/3/1 
s 2
f 105/1/4 106/2/4 107/3/4 108/4/4 
s 4
f 109/4/8 110/1/8 111/2/8 112/3/8 
s 8
f 105/4/3 108/1/3 110/2/3 109/3/3 
s 16
f 108/4/2 107/1/2 111/2/2 110/3/2 
s 32
f 107/4/5 106/1/5 112/2/5 111/3/5 
s 64
f 106/4/1 105/1/1 109/2/1 112/3/1 
s 2
f 113/1/4 114/2/4 115/3/4 116/4/4 
s 4
f 117/4/8 118/1/8 119/2/8 120/3/8 
s 8
f 113/4/3 116/1/3 118/2/3 117/3/3 
s 16
f 116/4/2 115/1/2 119/2/2 118/3/2 
s 32
f 115/4/5 114/1/5 120/2/5 119/3/5 
s 64
f 114/4/1 113/1/1 117/2/1 120/3/1 
s 2
f 121/1/4 122/2/4 123/3/4 124/4/4 
s 4
f 125/4/8 126/1/8 127/2/8 128/3/8 
s 8
f 121/4/3 124/1/3 126/2/3 125/3/3 
s 16
f 124/4/2 123/1/2 127/2/2 126/3/2 
s 32
f 123/4/5 122/1/5 128/2/5 127/3/5 
s 64
f 122/4/1 121/1/1 125/2/1 128/3/1 
s 2
f 129/1/1 130/2/1 131/3/1 132/4/1 
s 4
f 133/4/2 134/1/2 135/2/2 136/3/2 
s 8
f 129/4/3 132/1/3 134/2/3 133/3/3 
s 16
f 132/4/4 131/1/4 135/2/4 134/3/4 
s 32
f 131/4/5 130/1/5 136/2/5 135/3/5 
s 64
f 130/4/6 129/1/6 133/2/6 136/3/6 
s 2
f 137/1/1 138/2/1 139/3/1 140/4/1 
s 4
f 141/4/2 142/1/2 143/2/2 144/3/2 
s 8
f 137/4/3 140/1/3 142/2/3 141/3/3 
s 16
f 140/4/4 139/1/4 143/2/4 142/3/4 
s 32
f 139/4/5 138/1/5 144/2/5 143/3/5 
s 64
f 138/4/6 137/1/6 141/2/6 144/3/6 
s 2
f 145/1/1 146/2/1 147/3/1 148/4/1 
s 4
f 149/4/2 150/1/2 151/2/2 152/3/2 
s 8
f 145/4/3 148/1/3 150/2/3 149/3/3 
s 16
f 148/4/4 147/1/4 151/2/4 150/3/4 
s 32
f 147/4/5 146/1/5 152/2/5 151/3/5 
s 64
f 146/4/6 145/1/6 149/2/6 152/3/6 
s 2
f 153/1/1 154/2/1 155/3/1 156/4/1 
s 4
f 157/4/2 158/1/2 159/2/2 160/3/2 
s 8
f 153/4/3 156/1/3 158/2/3 157/3/3 
s 16
f 156/4/4 155/1/4 159/2/4 158/3/4 
s 32
f 155/4/5 154/1/5 160/2/5 159/3/5 
s 64
f 154/4/6 153/1/6 157/2/6 160/3/6 
s 2
f 161/1/1 162/2/1 163/3/1 164/4/1 
s 4
f 165/4/2 166/1/2 167/2/2 168/3/2 
s 8
f 161/4/3 164/1/3 166/2/3 165/3/3 
s 16
f 164/4/4 163/1/4 167/2/4 166/3/4 
s 32
f 163/4/5 162/1/5 168/2/5 167/3/5 
s 64
f 162/4/6 161/1/6 165/2/6 168/3/6 
s 2
f 169/1/1 170/2/1 171/3/1 172/4/1 
s 4
f 173/4/2 174/1/2 175/2/2 176/3/2 
s 8
f 169/4/3 172/1/3 174/2/3 173/3/3 
s 16
f 172/4/4 171/1/4 175/2/4 174/3/4 
s 32
f 171/4/5 170/1/5 176/2/5 175/3/5 
s 64
f 170/4/6 169/1/6 173/2/6 176/3/6 
# 132 polygons

