# 3ds Max Wavefront OBJ Exporter v0.97b - (c)2007 guruware
# File Created: 02.08.2015 17:37:34

#
# object Lamp01
#

v  4.3836 0.0000 13.5809
v  10.5867 0.0000 9.5696
v  10.5867 54.0287 9.5696
v  4.3836 54.0287 13.5809
v  13.9532 0.0000 2.9942
v  13.9532 54.0287 2.9942
v  13.5809 0.0000 -4.3836
v  13.5809 54.0287 -4.3836
v  9.5696 0.0000 -10.5867
v  9.5696 54.0287 -10.5867
v  2.9942 0.0000 -13.9532
v  2.9942 54.0287 -13.9532
v  -4.3836 0.0000 -13.5809
v  -4.3836 54.0287 -13.5809
v  0.0000 0.0000 -0.0000
v  0.0000 54.0287 -0.0000
v  6.8244 69.4655 12.5334
v  -0.3566 69.4655 14.2664
v  12.1768 69.4655 7.4420
v  14.2664 69.4655 0.3566
v  12.5334 69.4655 -6.8244
v  7.4420 69.4655 -12.1768
v  0.3566 69.4655 -14.2664
v  0.0000 69.4655 -0.0000
v  2.0478 84.9022 14.1232
v  -5.2882 84.9022 13.2549
v  8.8350 84.9022 11.2071
v  13.2549 84.9022 5.2882
v  14.1232 84.9022 -2.0478
v  11.2071 84.9022 -8.8350
v  5.2882 84.9022 -13.2549
v  0.0000 84.9022 -0.0000
v  -2.9837 100.3390 13.9555
v  -9.5617 100.3390 10.5939
v  4.3938 100.3390 13.5776
v  10.5939 100.3390 9.5617
v  13.9555 100.3390 2.9837
v  13.5776 100.3390 -4.3938
v  9.5617 100.3390 -10.5939
v  0.0000 100.3390 -0.0000
v  -9.5579 123.4942 10.5974
v  -13.5760 123.4942 4.3986
v  -2.9787 123.4942 13.9565
v  4.3986 123.4942 13.5760
v  10.5974 123.4942 9.5579
v  13.9565 123.4942 2.9787
v  13.5760 123.4942 -4.3986
v  0.0000 123.4942 -0.0000
v  -9.5579 169.8045 10.5974
v  -13.5760 169.8045 4.3986
v  -2.9787 169.8045 13.9565
v  4.3986 169.8045 13.5760
v  10.5974 169.8045 9.5579
v  13.9565 169.8045 2.9787
v  13.5760 169.8045 -4.3986
v  0.0000 169.8045 -0.0000
# 56 vertices

vn 0.5430 -0.0000 0.8397
vn 0.7418 -0.0000 0.6706
vn 0.7417 -0.0105 0.6707
vn 0.5045 -0.0079 0.8634
vn 0.9777 -0.0000 0.2098
vn 0.9776 -0.0105 0.2100
vn 0.9517 -0.0000 -0.3072
vn 0.9517 -0.0105 -0.3070
vn 0.6706 -0.0000 -0.7418
vn 0.6707 -0.0105 -0.7417
vn 0.2098 -0.0000 -0.9777
vn 0.2100 -0.0105 -0.9776
vn -0.0504 -0.0000 -0.9987
vn -0.0504 -0.0129 -0.9986
vn -0.9517 -0.0000 0.3072
vn -0.9517 0.0000 0.3072
vn -0.9622 0.0409 0.2692
vn -0.9415 0.1455 0.3039
vn -0.9700 -0.0706 0.2328
vn 0.4782 0.0005 0.8783
vn 0.1840 0.0034 0.9829
vn 0.8532 0.0005 0.5215
vn 0.9997 0.0005 0.0250
vn 0.8783 0.0005 -0.4782
vn 0.5215 0.0005 -0.8532
vn 0.2347 -0.0024 -0.9721
vn -0.9729 0.2250 0.0536
vn -0.9996 0.0021 -0.0270
vn 0.1435 0.0000 0.9897
vn -0.1690 0.0027 0.9856
vn 0.6191 -0.0000 0.7853
vn 0.9288 0.0000 0.3706
vn 0.9897 0.0000 -0.1435
vn 0.7853 0.0000 -0.6191
vn 0.5559 -0.0027 -0.8313
vn -0.9312 0.2285 -0.2838
vn -0.9693 -0.2220 -0.1055
vn -0.9288 0.0000 -0.3706
vn -0.2088 0.0100 0.9779
vn -0.4988 0.0111 0.8666
vn 0.3081 0.0100 0.9513
vn 0.7425 0.0100 0.6698
vn 0.9779 0.0100 0.2088
vn 0.9513 0.0100 -0.3081
vn 0.8100 0.0084 -0.5864
vn -0.7762 0.2222 -0.5900
vn -0.8709 -0.2285 -0.4351
vn -0.7405 0.0087 -0.6720
vn -0.6697 0.0000 0.7426
vn -0.8391 0.0000 0.5439
vn -0.2087 0.0000 0.9780
vn 0.3082 0.0000 0.9513
vn 0.7426 0.0000 0.6697
vn 0.9780 0.0000 0.2087
vn 0.9953 0.0000 -0.0966
vn -0.3884 0.0529 -0.9200
vn -0.6643 -0.2088 -0.7177
vn -0.3495 -0.0517 -0.9355
vn 0.9987 0.0000 -0.0515
vn -0.3082 0.0000 -0.9513
vn -0.3050 -0.1450 -0.9413
vn 0.0000 1.0000 -0.0000
vn 0.0000 -1.0000 -0.0000
# 63 vertex normals

vt 0.7500 0.0000 1.0000
vt 0.8333 0.0000 1.0000
vt 0.8333 0.3182 1.0000
vt 0.7500 0.3182 1.0000
vt 0.9167 0.0000 1.0000
vt 0.9167 0.3182 1.0000
vt 1.0000 0.0000 1.0000
vt 1.0000 0.3182 1.0000
vt 0.0014 0.0000 1.0000
vt 0.0833 0.0000 1.0000
vt 0.0833 0.3182 1.0000
vt 0.0014 0.3182 1.0000
vt 0.1667 0.0000 1.0000
vt 0.1667 0.3182 1.0000
vt 0.2500 0.0000 1.0000
vt 0.2500 0.3182 1.0000
vt 0.5000 0.0000 0.0000
vt 0.5000 0.3182 0.0000
vt 0.8333 0.4091 1.0000
vt 0.7500 0.4091 1.0000
vt 0.9167 0.4091 1.0000
vt 1.0000 0.4091 1.0000
vt 0.0002 0.3182 1.0000
vt 0.0817 0.4089 1.0000
vt 0.0013 0.4094 1.0000
vt 0.1667 0.4091 1.0000
vt 0.0833 0.4091 1.0000
vt 0.2500 0.4091 1.0000
vt 0.5000 0.4091 0.0000
vt 0.8333 0.5000 1.0000
vt 0.7500 0.5000 1.0000
vt 0.9167 0.5000 1.0000
vt 1.0000 0.5000 1.0000
vt 0.0002 0.4091 1.0000
vt 0.0845 0.4998 1.0000
vt 0.0041 0.5003 1.0000
vt 0.1667 0.5000 1.0000
vt 0.0833 0.5000 1.0000
vt 0.2500 0.5000 1.0000
vt 0.5000 0.5000 0.0000
vt 0.8333 0.5909 1.0000
vt 0.7500 0.5909 1.0000
vt 0.9167 0.5909 1.0000
vt 1.0000 0.5909 1.0000
vt 0.0002 0.5000 1.0000
vt 0.0845 0.5907 1.0000
vt 0.0041 0.5912 1.0000
vt 0.1667 0.5909 1.0000
vt 0.0833 0.5909 1.0000
vt 0.2500 0.5909 1.0000
vt 0.5000 0.5909 0.0000
vt 0.8333 0.7273 1.0000
vt 0.7500 0.7273 1.0000
vt 0.9167 0.7273 1.0000
vt 1.0000 0.7273 1.0000
vt 0.0003 0.5912 1.0000
vt 0.0819 0.5908 1.0000
vt 0.0854 0.7271 1.0000
vt 0.0048 0.7273 1.0000
vt 0.1667 0.7273 1.0000
vt 0.0833 0.7273 1.0000
vt 0.2500 0.7273 1.0000
vt 0.5000 0.7273 0.0000
vt 0.8333 1.0000 1.0000
vt 0.7500 1.0000 1.0000
vt 0.9167 1.0000 1.0000
vt 1.0000 1.0000 1.0000
vt 1.0819 0.7273 1.0000
vt 1.0819 1.0000 1.0000
vt 0.1667 1.0000 1.0000
vt 0.0833 1.0000 1.0000
vt 0.2500 1.0000 1.0000
vt 0.5000 1.0000 0.0000
# 73 texture coords

g Lamp01
s 8
f 1/1/1 2/2/2 3/3/3 4/4/4 
f 2/2/2 5/5/5 6/6/6 3/3/3 
f 5/5/5 7/7/7 8/8/8 6/6/6 
f 7/9/7 9/10/9 10/11/10 8/12/8 
f 9/10/9 11/13/11 12/14/12 10/11/10 
f 11/13/11 13/15/13 14/16/14 12/14/12 
s 2
f 13/15/15 15/17/16 16/18/17 14/16/18 
f 15/17/16 1/1/16 4/4/19 16/18/17 
s 8
f 4/4/4 3/3/3 17/19/20 18/20/21 
f 3/3/3 6/6/6 19/21/22 17/19/20 
f 6/6/6 8/8/8 20/22/23 19/21/22 
f 8/23/8 10/11/10 21/24/24 20/25/23 
f 10/11/10 12/14/12 22/26/25 21/27/24 
f 12/14/12 14/16/14 23/28/26 22/26/25 
s 2
f 14/16/18 16/18/17 23/28/27 
f 16/18/17 4/4/19 24/29/28 
s 8
f 18/20/21 17/19/20 25/30/29 26/31/30 
f 17/19/20 19/21/22 27/32/31 25/30/29 
f 19/21/22 20/22/23 28/33/32 27/32/31 
f 20/34/23 21/27/24 29/35/33 28/36/32 
f 21/27/24 22/26/25 30/37/34 29/38/33 
f 22/26/25 23/28/26 31/39/35 30/37/34 
s 2
f 23/28/27 24/29/28 31/39/36 
f 24/29/28 18/20/37 32/40/38 
s 8
f 26/31/30 25/30/29 33/41/39 34/42/40 
f 25/30/29 27/32/31 35/43/41 33/41/39 
f 27/32/31 28/33/32 36/44/42 35/43/41 
f 28/45/32 29/38/33 37/46/43 36/47/42 
f 29/38/33 30/37/34 38/48/44 37/49/43 
f 30/37/34 31/39/35 39/50/45 38/48/44 
s 2
f 31/39/36 32/40/38 39/50/46 
f 32/40/38 26/31/47 40/51/48 
s 8
f 34/42/40 33/41/39 41/52/49 42/53/50 
f 33/41/39 35/43/41 43/54/51 41/52/49 
f 35/43/41 36/44/42 44/55/52 43/54/51 
f 36/56/42 37/57/43 45/58/53 44/59/52 
f 37/49/43 38/48/44 46/60/54 45/61/53 
f 38/48/44 39/50/45 47/62/55 46/60/54 
s 2
f 39/50/46 40/51/48 47/62/56 
f 40/51/48 34/42/57 48/63/58 
s 8
f 42/53/50 41/52/49 49/64/49 50/65/50 
f 41/52/49 43/54/51 51/66/51 49/64/49 
f 43/54/51 44/55/52 52/67/52 51/66/51 
f 44/55/52 45/68/53 53/69/53 52/67/52 
f 45/61/53 46/60/54 54/70/54 53/71/53 
f 46/60/54 47/62/55 55/72/59 54/70/54 
s 2
f 47/62/56 48/63/58 56/73/60 55/72/60 
f 48/63/58 42/53/61 50/65/60 56/73/60 
f 40/51/48 48/63/58 47/62/56 
f 34/42/57 42/53/61 48/63/58 
f 32/40/38 40/51/48 39/50/46 
f 26/31/47 34/42/57 40/51/48 
f 24/29/28 32/40/38 31/39/36 
f 18/20/37 26/31/47 32/40/38 
f 16/18/17 24/29/28 23/28/27 
f 4/4/19 18/20/37 24/29/28 
s off
f 55/72/62 56/73/62 54/70/62 
f 50/65/62 49/64/62 56/73/62 
f 49/64/62 51/66/62 56/73/62 
f 54/70/62 56/73/62 53/69/62 
f 53/69/62 56/73/62 52/67/62 
f 51/66/62 52/67/62 56/73/62 
f 13/15/63 11/13/63 15/17/63 
f 1/1/63 15/17/63 2/2/63 
f 2/2/63 15/17/63 5/5/63 
f 5/5/63 15/17/63 7/9/63 
f 11/13/63 9/10/63 15/17/63 
f 9/10/63 7/9/63 15/17/63 
# 40 polygons - 28 triangles

