# 3ds Max Wavefront OBJ Exporter v0.97b - (c)2007 guruware
# File Created: 14.07.2015 21:57:22

#
# object RoadStraight
#

v  -501.1588 500.3575 -9.1798
v  -343.6699 500.3575 -9.1798
v  -343.6700 -500.3575 -9.1798
v  -501.1589 -500.3575 -9.1798
v  501.1587 -500.3578 38.6182
v  344.5431 -500.3576 38.6182
v  344.5431 -500.3576 11.4837
v  501.1587 -500.3578 11.4837
v  -501.1592 -500.3572 11.4837
v  -343.6703 -500.3574 11.4837
v  -501.1587 500.3577 11.4837
v  501.1589 500.3575 11.4837
v  501.1591 500.3574 -9.1798
v  344.5435 500.3574 -9.1798
v  344.5433 500.3575 11.4837
v  501.1589 -500.3575 -9.1798
v  -343.6699 500.3577 11.4837
v  344.5433 -500.3575 -9.1798
v  344.5433 500.3575 38.6182
v  -501.1587 500.3577 38.6182
v  -501.1592 -500.3572 38.6182
v  -343.6703 -500.3574 38.6182
v  -343.6699 500.3577 38.6182
v  501.1589 500.3575 38.6182
# 24 vertices

vn 0.0000 0.0000 -1.0000
vn -0.0000 -1.0000 0.0000
vn -1.0000 0.0000 -0.0000
vn 0.0000 1.0000 -0.0000
vn 1.0000 -0.0000 0.0000
vn -0.0000 -1.0000 -0.0000
vn 0.0000 0.0000 1.0000
vn -1.0000 0.0000 0.0000
vn 0.0000 1.0000 0.0000
# 9 vertex normals

g RoadStraight
s off
f 1//1 2//1 3//1 4//1 
f 5//2 6//2 7//2 8//2 
f 9//2 4//2 3//2 10//2 
f 11//3 1//3 4//3 9//3 
f 12//4 13//4 14//4 15//4 
f 13//5 12//5 8//5 16//5 
f 17//4 2//4 1//4 11//4 
f 10//6 3//6 18//6 7//6 
f 17//7 10//7 7//7 15//7 
f 2//1 14//1 18//1 3//1 
f 14//1 13//1 16//1 18//1 
f 6//8 19//8 15//8 7//8 
f 7//6 18//6 16//6 8//6 
f 15//4 14//4 2//4 17//4 
f 20//7 21//7 22//7 23//7 
f 19//7 6//7 5//7 24//7 
f 23//5 22//5 10//5 17//5 
f 20//9 23//9 17//9 11//9 
f 19//9 24//9 12//9 15//9 
f 21//8 20//8 11//8 9//8 
f 24//5 5//5 8//5 12//5 
f 22//2 21//2 9//2 10//2 
# 22 polygons

