# 3ds Max Wavefront OBJ Exporter v0.97b - (c)2007 guruware
# File Created: 09.08.2015 15:41:38

#
# object RoadStraight
#

v  0.0000 501.1588 -9.1798
v  0.0000 422.4144 -9.1798
v  -166.7858 422.4145 -9.1798
v  -166.7858 501.1589 -9.1798
v  -500.3577 -422.8509 11.4837
v  -500.3577 -422.8509 38.6182
v  -500.3576 -344.5431 38.6182
v  -500.3576 -344.5431 11.4837
v  -500.3574 343.6703 11.4837
v  -500.3573 422.4148 11.4837
v  -500.3575 422.4145 -9.1798
v  -500.3575 343.6701 -9.1798
v  0.0003 501.1590 11.4837
v  -166.7856 501.1591 11.4837
v  500.3575 -344.5434 11.4837
v  500.3575 -422.8512 11.4837
v  500.3574 -422.8513 -9.1798
v  500.3574 -344.5435 -9.1798
v  -0.0001 -501.1590 -9.1798
v  -0.0001 -501.1588 11.4837
v  -166.7860 -501.1588 11.4837
v  -166.7859 -501.1590 -9.1798
v  500.3578 501.1587 11.4837
v  500.3578 422.4143 11.4837
v  500.3576 422.4143 -9.1798
v  500.3576 501.1588 -9.1798
v  -500.3575 -0.4364 11.4837
v  -500.3575 -0.4366 -9.1798
v  -500.3575 -172.4900 -9.1798
v  -500.3576 -172.4897 11.4837
v  0.0001 -0.4365 11.4837
v  -166.7858 -0.4365 11.4837
v  -166.7858 -172.4899 11.4837
v  0.0000 -172.4899 11.4837
v  -0.0000 -0.4367 -9.1798
v  -166.7858 -0.4367 -9.1798
v  -166.7858 171.6167 -9.1798
v  0.0000 171.6166 -9.1798
v  -0.0001 -344.5434 -9.1798
v  -0.0001 -422.8512 -9.1798
v  -166.7859 -422.8512 -9.1798
v  -166.7859 -344.5434 -9.1798
v  -0.0001 -344.5432 11.4837
v  -0.0001 -344.5432 38.6182
v  166.7858 -344.5433 38.6182
v  166.7858 -344.5433 11.4837
v  -500.3578 -501.1587 11.4837
v  -500.3575 -422.8511 -9.1798
v  -500.3575 -501.1589 -9.1798
v  500.3576 -0.4367 11.4837
v  500.3575 -0.4368 -9.1798
v  500.3575 171.6166 -9.1798
v  500.3577 171.6166 11.4837
v  0.0002 343.6701 38.6182
v  0.0002 422.4146 38.6182
v  -166.7856 422.4146 38.6182
v  -166.7857 343.6702 38.6182
v  -0.0001 -501.1588 38.6182
v  -0.0001 -422.8510 38.6182
v  -166.7860 -422.8510 38.6182
v  -166.7860 -501.1588 38.6182
v  0.0002 343.6701 11.4837
v  -166.7857 343.6702 11.4837
v  500.3578 422.4143 38.6182
v  500.3577 343.6699 38.6182
v  500.3577 343.6699 11.4837
v  500.3575 -422.8512 38.6182
v  500.3575 -501.1590 38.6182
v  500.3575 -501.1590 11.4837
v  0.0003 501.1590 38.6182
v  166.7861 501.1589 38.6182
v  166.7861 501.1589 11.4837
v  -500.3573 422.4148 38.6182
v  -500.3572 501.1593 38.6182
v  -500.3572 501.1593 11.4837
v  333.5717 422.4144 -9.1798
v  333.5717 501.1588 -9.1798
v  166.7859 422.4144 -9.1798
v  166.7858 501.1588 -9.1798
v  -333.5716 422.4145 -9.1798
v  -333.5717 343.6700 -9.1798
v  -166.7858 343.6700 -9.1798
v  333.5719 501.1588 11.4837
v  -500.3575 501.1590 -9.1798
v  -333.5714 501.1591 11.4837
v  -333.5717 501.1589 -9.1798
v  500.3574 -501.1591 -9.1798
v  333.5716 -501.1589 11.4837
v  333.5715 -501.1591 -9.1798
v  166.7858 -501.1588 11.4837
v  166.7857 -501.1591 -9.1798
v  -333.5717 -501.1590 -9.1798
v  -333.5719 -501.1587 11.4837
v  333.5718 -0.4367 11.4837
v  333.5717 -172.4900 11.4837
v  500.3575 -172.4901 11.4837
v  166.7859 -0.4366 11.4837
v  166.7859 -172.4899 11.4837
v  -333.5716 -0.4364 11.4837
v  -333.5716 171.6169 11.4837
v  -500.3574 171.6170 11.4837
v  -166.7857 171.6169 11.4837
v  333.5717 -0.4368 -9.1798
v  333.5717 171.6166 -9.1798
v  166.7858 -0.4367 -9.1798
v  166.7859 171.6166 -9.1798
v  -333.5717 -0.4366 -9.1798
v  -333.5717 -172.4900 -9.1798
v  -166.7859 -172.4900 -9.1798
v  333.5716 -422.8513 -9.1798
v  333.5716 -344.5435 -9.1798
v  166.7857 -422.8512 -9.1798
v  166.7858 -344.5434 -9.1798
v  -333.5717 -422.8512 -9.1798
v  -333.5718 -344.5432 38.6182
v  -333.5718 -344.5432 11.4837
v  -166.7859 -344.5432 38.6182
v  -166.7859 -344.5432 11.4837
v  500.3575 -344.5434 38.6182
v  333.5717 -344.5433 11.4837
v  333.5717 -344.5433 38.6182
v  333.5719 422.4144 38.6182
v  333.5718 343.6700 38.6182
v  166.7861 422.4145 38.6182
v  166.7860 343.6700 38.6182
v  -333.5714 422.4147 38.6182
v  -333.5714 501.1591 38.6182
v  -166.7856 501.1591 38.6182
v  333.5716 -422.8511 38.6182
v  333.5716 -501.1589 38.6182
v  166.7858 -422.8511 38.6182
v  166.7857 -501.1588 38.6182
v  -333.5719 -422.8510 38.6182
v  333.5719 343.6700 11.4837
v  166.7860 343.6700 11.4837
v  -500.3574 343.6703 38.6182
v  -333.5715 343.6703 11.4837
v  -333.5715 343.6703 38.6182
v  500.3578 501.1587 38.6182
v  333.5719 501.1588 38.6182
v  -500.3578 -501.1587 38.6182
v  -333.5719 -501.1587 38.6182
v  -500.3575 171.6167 -9.1798
v  -500.3575 -344.5433 -9.1798
v  0.0001 171.6168 11.4837
v  -0.0000 -172.4901 -9.1798
v  0.0001 343.6700 -9.1798
v  500.3575 -172.4901 -9.1798
v  500.3575 343.6699 -9.1798
v  333.5718 171.6167 11.4837
v  166.7860 171.6167 11.4837
v  -333.5717 -172.4898 11.4837
v  333.5716 -172.4901 -9.1798
v  333.5717 343.6700 -9.1798
v  166.7858 -172.4901 -9.1798
v  166.7859 343.6700 -9.1798
v  -333.5717 171.6167 -9.1798
v  -333.5717 -344.5434 -9.1798
# 158 vertices

vn 0.0000 0.0000 -1.0000
vn -1.0000 0.0000 0.0000
vn 0.0000 1.0000 -0.0000
vn 1.0000 -0.0000 -0.0000
vn -0.0000 -1.0000 0.0000
vn -1.0000 0.0000 -0.0000
vn 0.0000 0.0000 1.0000
vn 0.0000 1.0000 0.0000
vn 1.0000 -0.0000 0.0000
vn -0.0000 -1.0000 -0.0000
# 10 vertex normals

g RoadStraight
s off
f 1//1 2//1 3//1 4//1 
f 5//2 6//2 7//2 8//2 
f 9//2 10//2 11//2 12//2 
f 13//3 1//3 4//3 14//3 
f 15//4 16//4 17//4 18//4 
f 19//5 20//5 21//5 22//5 
f 23//4 24//4 25//4 26//4 
f 27//6 28//6 29//6 30//6 
f 31//7 32//7 33//7 34//7 
f 35//1 36//1 37//1 38//1 
f 39//1 40//1 41//1 42//1 
f 43//8 44//8 45//8 46//8 
f 47//6 5//6 48//6 49//6 
f 50//4 51//4 52//4 53//4 
f 54//7 55//7 56//7 57//7 
f 58//7 59//7 60//7 61//7 
f 62//5 54//5 57//5 63//5 
f 24//9 64//9 65//9 66//9 
f 16//9 67//9 68//9 69//9 
f 13//8 70//8 71//8 72//8 
f 20//10 58//10 61//10 21//10 
f 10//2 73//2 74//2 75//2 
f 26//1 25//1 76//1 77//1 
f 77//1 76//1 78//1 79//1 
f 79//1 78//1 2//1 1//1 
f 12//1 11//1 80//1 81//1 
f 81//1 80//1 3//1 82//1 
f 23//8 26//8 77//8 83//8 
f 83//3 77//3 79//3 72//3 
f 72//3 79//3 1//3 13//3 
f 84//3 75//3 85//3 86//3 
f 86//3 85//3 14//3 4//3 
f 87//5 69//5 88//5 89//5 
f 89//5 88//5 90//5 91//5 
f 91//5 90//5 20//5 19//5 
f 47//5 49//5 92//5 93//5 
f 93//5 92//5 22//5 21//5 
f 50//7 94//7 95//7 96//7 
f 94//7 97//7 98//7 95//7 
f 97//7 31//7 34//7 98//7 
f 27//7 99//7 100//7 101//7 
f 99//7 32//7 102//7 100//7 
f 51//1 103//1 104//1 52//1 
f 103//1 105//1 106//1 104//1 
f 105//1 35//1 38//1 106//1 
f 28//1 107//1 108//1 29//1 
f 107//1 36//1 109//1 108//1 
f 18//1 17//1 110//1 111//1 
f 111//1 110//1 112//1 113//1 
f 113//1 112//1 40//1 39//1 
f 49//1 48//1 114//1 92//1 
f 92//1 114//1 41//1 22//1 
f 8//8 7//8 115//8 116//8 
f 116//8 115//8 117//8 118//8 
f 118//8 117//8 44//8 43//8 
f 119//8 15//8 120//8 121//8 
f 121//8 120//8 46//8 45//8 
f 65//7 64//7 122//7 123//7 
f 123//7 122//7 124//7 125//7 
f 125//7 124//7 55//7 54//7 
f 74//7 73//7 126//7 127//7 
f 127//7 126//7 56//7 128//7 
f 68//7 67//7 129//7 130//7 
f 130//7 129//7 131//7 132//7 
f 132//7 131//7 59//7 58//7 
f 7//7 6//7 133//7 115//7 
f 115//7 133//7 60//7 117//7 
f 66//10 65//10 123//10 134//10 
f 134//10 123//10 125//10 135//10 
f 135//5 125//5 54//5 62//5 
f 136//10 9//10 137//10 138//10 
f 138//10 137//10 63//10 57//10 
f 75//8 74//8 127//8 85//8 
f 85//8 127//8 128//8 14//8 
f 14//8 128//8 70//8 13//8 
f 139//8 23//8 83//8 140//8 
f 140//8 83//8 72//8 71//8 
f 69//10 68//10 130//10 88//10 
f 88//10 130//10 132//10 90//10 
f 90//10 132//10 58//10 20//10 
f 141//10 47//10 93//10 142//10 
f 142//10 93//10 21//10 61//10 
f 9//2 12//2 143//2 101//2 
f 101//2 143//2 28//2 27//2 
f 144//6 8//6 30//6 29//6 
f 62//7 63//7 102//7 145//7 
f 145//7 102//7 32//7 31//7 
f 118//7 43//7 34//7 33//7 
f 39//1 42//1 109//1 146//1 
f 146//1 109//1 36//1 35//1 
f 82//1 147//1 38//1 37//1 
f 15//4 18//4 148//4 96//4 
f 96//4 148//4 51//4 50//4 
f 149//4 66//4 53//4 52//4 
f 66//7 134//7 150//7 53//7 
f 53//7 150//7 94//7 50//7 
f 120//7 15//7 96//7 95//7 
f 134//7 135//7 151//7 150//7 
f 150//7 151//7 97//7 94//7 
f 46//7 120//7 95//7 98//7 
f 135//7 62//7 145//7 151//7 
f 151//7 145//7 31//7 97//7 
f 43//7 46//7 98//7 34//7 
f 8//7 116//7 152//7 30//7 
f 30//7 152//7 99//7 27//7 
f 137//7 9//7 101//7 100//7 
f 116//7 118//7 33//7 152//7 
f 152//7 33//7 32//7 99//7 
f 63//7 137//7 100//7 102//7 
f 18//1 111//1 153//1 148//1 
f 148//1 153//1 103//1 51//1 
f 154//1 149//1 52//1 104//1 
f 111//1 113//1 155//1 153//1 
f 103//1 153//1 155//1 105//1 
f 156//1 154//1 104//1 106//1 
f 113//1 39//1 146//1 155//1 
f 155//1 146//1 35//1 105//1 
f 147//1 156//1 106//1 38//1 
f 12//1 81//1 157//1 143//1 
f 143//1 157//1 107//1 28//1 
f 158//1 144//1 29//1 108//1 
f 81//1 82//1 37//1 157//1 
f 107//1 157//1 37//1 36//1 
f 42//1 158//1 108//1 109//1 
f 147//1 82//1 3//1 2//1 
f 47//2 141//2 6//2 5//2 
f 75//2 84//2 11//2 10//2 
f 69//4 87//4 17//4 16//4 
f 66//4 149//4 25//4 24//4 
f 19//1 22//1 41//1 40//1 
f 8//6 144//6 48//6 5//6 
f 70//7 128//7 56//7 55//7 
f 44//7 117//7 60//7 59//7 
f 23//9 139//9 64//9 24//9 
f 15//9 119//9 67//9 16//9 
f 9//2 136//2 73//2 10//2 
f 149//1 154//1 76//1 25//1 
f 154//1 156//1 78//1 76//1 
f 156//1 147//1 2//1 78//1 
f 84//1 86//1 80//1 11//1 
f 86//1 4//1 3//1 80//1 
f 87//1 89//1 110//1 17//1 
f 89//1 91//1 112//1 110//1 
f 91//1 19//1 40//1 112//1 
f 144//1 158//1 114//1 48//1 
f 158//1 42//1 41//1 114//1 
f 139//7 140//7 122//7 64//7 
f 140//7 71//7 124//7 122//7 
f 71//7 70//7 55//7 124//7 
f 136//7 138//7 126//7 73//7 
f 138//7 57//7 56//7 126//7 
f 119//7 121//7 129//7 67//7 
f 121//7 45//7 131//7 129//7 
f 45//7 44//7 59//7 131//7 
f 141//7 142//7 133//7 6//7 
f 142//7 61//7 60//7 133//7 
# 156 polygons

