# 3ds Max Wavefront OBJ Exporter v0.97b - (c)2007 guruware
# File Created: 14.07.2015 22:18:48

#
# object RoadT
#

v  501.1589 500.3575 11.4837
v  501.1591 500.3574 -9.1798
v  344.5435 500.3574 -9.1798
v  344.5433 500.3575 11.4837
v  -343.6699 500.3577 11.4837
v  -343.6699 500.3575 -9.1798
v  -501.1588 500.3575 -9.1798
v  -501.1587 500.3577 11.4837
v  -501.1587 500.3577 38.6182
v  -343.6699 500.3577 38.6182
v  344.5433 500.3575 38.6182
v  501.1589 500.3575 38.6182
v  -501.1588 339.1989 11.4837
v  -501.1588 339.1989 38.6182
v  -343.6699 339.1987 -9.1798
v  -501.1588 339.1987 -9.1798
v  501.1588 339.1986 11.4837
v  501.1591 339.1985 -9.1798
v  344.5435 339.1986 -9.1798
v  -343.6700 339.1988 38.6182
v  344.5433 339.1986 38.6182
v  501.1589 339.1986 38.6182
v  -343.6700 339.1989 11.4837
v  -343.6700 -339.1989 11.4837
v  344.5433 -339.1986 11.4837
v  344.5433 339.1986 11.4837
v  344.5435 -339.1986 -9.1798
v  -343.6699 -339.1987 -9.1798
v  501.1591 -339.1985 -9.1798
v  501.1589 -500.3575 11.4837
v  344.5433 -500.3575 11.4837
v  344.5435 -500.3574 -9.1798
v  501.1591 -500.3574 -9.1798
v  -343.6699 -500.3577 11.4837
v  -501.1587 -500.3577 11.4837
v  -501.1588 -500.3575 -9.1798
v  -343.6699 -500.3575 -9.1798
v  344.5433 -500.3575 38.6182
v  344.5433 -339.1986 38.6182
v  -501.1587 -500.3577 38.6182
v  -343.6699 -500.3577 38.6182
v  501.1589 -500.3575 38.6182
v  -501.1588 -339.1989 11.4837
v  -501.1588 -339.1989 38.6182
v  -501.1588 -339.1987 -9.1798
v  501.1588 -339.1986 11.4837
v  -343.6700 -339.1988 38.6182
v  501.1589 -339.1986 38.6182
# 48 vertices

vn 0.0000 1.0000 -0.0000
vn 0.0000 1.0000 0.0000
vn -1.0000 0.0000 0.0000
vn 0.0000 0.0000 -1.0000
vn 1.0000 -0.0000 0.0000
vn -0.0000 -0.0000 1.0000
vn 0.0000 0.0000 1.0000
vn 1.0000 -0.0000 -0.0000
vn 0.0000 -1.0000 -0.0000
vn -1.0000 -0.0000 0.0000
vn 0.0000 -1.0000 0.0000
vn 1.0000 0.0000 0.0000
vn -0.0000 0.0000 1.0000
vn 1.0000 0.0000 -0.0000
vn -0.0000 -1.0000 -0.0000
vn -0.0000 1.0000 -0.0000
# 16 vertex normals

g RoadT
s off
f 1//1 2//1 3//1 4//1 
f 5//1 6//1 7//1 8//1 
f 4//1 3//1 6//1 5//1 
f 9//2 10//2 5//2 8//2 
f 11//2 12//2 1//2 4//2 
f 13//3 14//3 9//3 8//3 
f 7//4 6//4 15//4 16//4 
f 8//3 7//3 16//3 13//3 
f 2//5 1//5 17//5 18//5 
f 6//4 3//4 19//4 15//4 
f 3//4 2//4 18//4 19//4 
f 10//6 9//6 14//6 20//6 
f 12//7 11//7 21//7 22//7 
f 1//8 12//8 22//8 17//8 
f 23//7 24//7 25//7 26//7 
f 15//4 19//4 27//4 28//4 
f 19//4 18//4 29//4 27//4 
f 30//9 31//9 32//9 33//9 
f 34//9 35//9 36//9 37//9 
f 25//10 31//10 38//10 39//10 
f 31//9 34//9 37//9 32//9 
f 40//11 35//11 34//11 41//11 
f 38//11 31//11 30//11 42//11 
f 43//10 35//10 40//10 44//10 
f 36//4 45//4 28//4 37//4 
f 35//10 43//10 45//10 36//10 
f 33//12 29//12 46//12 30//12 
f 31//7 25//7 24//7 34//7 
f 37//4 28//4 27//4 32//4 
f 32//4 27//4 29//4 33//4 
f 41//13 47//13 44//13 40//13 
f 42//7 48//7 39//7 38//7 
f 34//12 24//12 47//12 41//12 
f 30//14 46//14 48//14 42//14 
f 15//4 28//4 45//4 16//4 
f 16//3 45//3 43//3 13//3 
f 17//12 46//12 29//12 18//12 
f 11//7 10//7 20//7 21//7 
f 20//15 23//15 26//15 21//15 
f 11//2 4//2 5//2 10//2 
f 17//7 26//7 25//7 46//7 
f 21//15 26//15 17//15 22//15 
f 48//16 46//16 25//16 39//16 
f 43//7 24//7 23//7 13//7 
f 14//15 13//15 23//15 20//15 
f 47//16 24//16 43//16 44//16 
# 46 polygons

