# 3ds Max Wavefront OBJ Exporter v0.97b - (c)2007 guruware
# File Created: 14.07.2015 22:18:24

#
# object RoadCorner
#

v  501.1589 500.3575 11.4837
v  501.1591 500.3574 -9.1798
v  344.5435 500.3574 -9.1798
v  344.5433 500.3575 11.4837
v  -343.6699 500.3577 11.4837
v  -343.6699 500.3575 -9.1798
v  -501.1588 500.3575 -9.1798
v  -501.1587 500.3577 11.4837
v  -501.1587 500.3577 38.6182
v  -343.6699 500.3577 38.6182
v  344.5433 500.3575 38.6182
v  501.1589 500.3575 38.6182
v  -501.1588 339.1989 11.4837
v  -501.1588 339.1989 38.6182
v  -343.6699 339.1987 -9.1798
v  -501.1588 339.1987 -9.1798
v  501.1588 339.1986 11.4837
v  501.1591 339.1985 -9.1798
v  344.5435 339.1986 -9.1798
v  -343.6700 339.1988 38.6182
v  344.5433 339.1986 38.6182
v  501.1589 339.1986 38.6182
v  -501.1588 -339.1989 11.4837
v  -501.1588 -339.1989 38.6182
v  -343.6700 339.1989 11.4837
v  -343.6700 -339.1989 11.4837
v  344.5433 -339.1986 11.4837
v  344.5433 339.1986 11.4837
v  344.5435 -339.1986 -9.1798
v  -343.6699 -339.1987 -9.1798
v  501.1591 -339.1985 -9.1798
v  -343.6700 -339.1988 38.6182
v  501.1589 -500.3575 11.4837
v  344.5433 -500.3575 11.4837
v  344.5435 -500.3574 -9.1798
v  501.1591 -500.3574 -9.1798
v  -343.6699 -500.3577 11.4837
v  -501.1587 -500.3577 11.4837
v  -501.1588 -500.3575 -9.1798
v  -343.6699 -500.3575 -9.1798
v  344.5433 -500.3575 38.6182
v  344.5433 -339.1986 38.6182
v  -501.1587 -500.3577 38.6182
v  -343.6699 -500.3577 38.6182
v  501.1589 -500.3575 38.6182
v  -501.1588 -339.1987 -9.1798
v  501.1588 -339.1986 11.4837
v  501.1589 -339.1986 38.6182
# 48 vertices

vn 0.0000 1.0000 -0.0000
vn 0.0000 1.0000 0.0000
vn -1.0000 0.0000 0.0000
vn 0.0000 0.0000 -1.0000
vn 1.0000 -0.0000 0.0000
vn -0.0000 -0.0000 1.0000
vn 0.0000 0.0000 1.0000
vn 1.0000 -0.0000 -0.0000
vn -0.0000 0.0000 1.0000
vn 1.0000 0.0000 0.0000
vn 0.0000 -1.0000 -0.0000
vn -1.0000 -0.0000 0.0000
vn 0.0000 -1.0000 0.0000
vn 1.0000 0.0000 -0.0000
vn -0.0000 -1.0000 -0.0000
vn -0.0000 1.0000 -0.0000
# 16 vertex normals

g RoadCorner
s off
f 1//1 2//1 3//1 4//1 
f 5//1 6//1 7//1 8//1 
f 4//1 3//1 6//1 5//1 
f 9//2 10//2 5//2 8//2 
f 11//2 12//2 1//2 4//2 
f 13//3 14//3 9//3 8//3 
f 7//4 6//4 15//4 16//4 
f 8//3 7//3 16//3 13//3 
f 2//5 1//5 17//5 18//5 
f 6//4 3//4 19//4 15//4 
f 3//4 2//4 18//4 19//4 
f 10//6 9//6 14//6 20//6 
f 12//7 11//7 21//7 22//7 
f 13//3 23//3 24//3 14//3 
f 1//8 12//8 22//8 17//8 
f 25//7 26//7 27//7 28//7 
f 15//4 19//4 29//4 30//4 
f 19//4 18//4 31//4 29//4 
f 20//9 14//9 24//9 32//9 
f 25//10 20//10 32//10 26//10 
f 33//11 34//11 35//11 36//11 
f 37//11 38//11 39//11 40//11 
f 27//12 34//12 41//12 42//12 
f 34//11 37//11 40//11 35//11 
f 43//13 38//13 37//13 44//13 
f 41//13 34//13 33//13 45//13 
f 23//12 38//12 43//12 24//12 
f 39//4 46//4 30//4 40//4 
f 38//12 23//12 46//12 39//12 
f 36//10 31//10 47//10 33//10 
f 34//7 27//7 26//7 37//7 
f 40//4 30//4 29//4 35//4 
f 35//4 29//4 31//4 36//4 
f 44//9 32//9 24//9 43//9 
f 45//7 48//7 42//7 41//7 
f 37//10 26//10 32//10 44//10 
f 33//14 47//14 48//14 45//14 
f 15//4 30//4 46//4 16//4 
f 16//3 46//3 23//3 13//3 
f 17//10 47//10 31//10 18//10 
f 11//7 10//7 20//7 21//7 
f 20//15 25//15 28//15 21//15 
f 11//2 4//2 5//2 10//2 
f 17//7 28//7 27//7 47//7 
f 21//15 28//15 17//15 22//15 
f 48//16 47//16 27//16 42//16 
# 46 polygons

